# xmcd CD database file
#
# Track frame offsets:
#	150
#	20545
#	40282
#	57477
#	75285
#	94647
#	114222
#	129655
#	152450
#	169282
#	187510
#	205502
#	222242
#	239397
#
# Disc length: 3428 seconds
#
# Revision: 0
# Processed by: cddbd v1.4PL0 Copyright (c) Steve Scherf et al.
# Submitted via: CDex 1.50
#
DISCID=a70d620e
DTITLE=Los Fatales - Bicho Bicho
DYEAR=1900
DGENRE=Salsa
TTITLE0=Bicho Bicho
TTITLE1=Devuelveme A Mi Chica
TTITLE2=La Foto De Sandra
TTITLE3=La Rubia Y La Morena
TTITLE4=El Circo
TTITLE5=Bien De Bien
TTITLE6=Pizza Muzzarella
TTITLE7=Moviendo La Cabeza
TTITLE8=El Baile Del Pimpollo
TTITLE9=Masculino-Femenino
TTITLE10=Colegiala
TTITLE11=Compadre Comadre (Remix)
TTITLE12=Apagon (Remix)
TTITLE13=La Noche Del Terror (Remix)
EXTD=
EXTT0=
EXTT1=
EXTT2=
EXTT3=
EXTT4=
EXTT5=
EXTT6=
EXTT7=
EXTT8=
EXTT9=
EXTT10=
EXTT11=
EXTT12=
EXTT13=
PLAYORDER=
